<svg version="1.1" id="Layer_1" xmlns="http://www.w3.org/2000/svg" xmlns:xlink="http://www.w3.org/1999/xlink" x="0px" y="0px"
	 width="100%" viewBox="0 0 960 1024" enable-background="new 0 0 960 1024" xml:space="preserve">
<path fill="#000000" opacity="1.000000" stroke="none" 
	d="
M648.340088,537.933716 
	C634.640625,536.404114 621.402100,534.970093 608.177795,533.415466 
	C602.033325,532.693115 596.338196,533.626831 590.808960,536.562012 
	C585.375061,539.446594 579.742371,541.986206 574.083130,544.411865 
	C554.083618,552.984192 536.483704,564.968872 521.255859,580.552673 
	C514.425171,587.543091 509.433716,587.140442 502.808807,579.772339 
	C499.306549,575.877197 496.838257,571.372314 495.499329,566.291199 
	C493.631500,559.202881 495.893799,554.667847 502.830627,552.171814 
	C506.738312,550.765808 510.747223,549.523254 514.809143,548.684814 
	C529.415771,545.669678 542.476074,539.390076 554.596436,530.815063 
	C562.886108,524.950256 571.314880,519.262695 580.184387,514.277405 
	C586.410828,510.777679 589.260498,504.740173 591.954834,498.598114 
	C599.128113,482.246094 607.625977,466.647369 617.315491,451.618958 
	C627.663696,435.569092 641.521484,424.349640 659.535339,418.195770 
	C661.832886,417.410889 664.203857,416.840698 668.093201,415.726196 
	C663.294495,416.094818 662.014954,413.798187 660.968201,411.234772 
	C653.957031,394.065582 643.924561,378.863037 631.123230,365.473541 
	C628.486267,362.715424 626.838562,359.608276 626.847534,355.682983 
	C626.861206,349.701172 623.804504,345.817413 618.562866,343.128387 
	C612.577515,340.057831 606.283691,337.881531 599.781921,336.492798 
	C595.098816,335.492523 592.271667,333.801025 592.353149,328.436340 
	C592.399414,325.392853 591.103210,322.336914 591.937256,318.973633 
	C593.035034,319.042786 593.893127,318.915894 594.618530,319.169159 
	C610.912720,324.857544 626.563721,331.668427 639.072144,344.143097 
	C643.905212,348.963104 648.840027,353.705048 654.000427,358.168152 
	C667.768005,370.075348 674.175415,386.370758 681.169434,402.436493 
	C687.851379,417.785583 692.382996,433.733521 695.842590,450.037811 
	C696.274597,452.073517 696.939026,453.582336 698.786682,454.892059 
	C704.193420,458.724762 705.742126,464.614746 702.298340,470.198853 
	C700.076111,473.802185 701.271362,475.437744 704.085754,477.442047 
	C709.651367,481.405762 715.051636,485.569336 719.092590,491.236877 
	C726.391907,501.474182 725.421082,509.502411 715.627258,517.783813 
	C701.797974,529.477478 685.493835,535.176819 667.747620,537.237183 
	C661.460693,537.967102 655.148132,538.443542 648.340088,537.933716 
M659.618103,483.171661 
	C640.253906,493.515228 620.898682,503.874268 602.607605,516.080811 
	C629.102417,503.564667 655.424316,490.745117 679.322571,473.443939 
	C672.969604,476.567291 666.616638,479.690613 659.618103,483.171661 
M683.387939,431.399933 
	C684.275879,437.647095 685.142761,443.897339 686.066528,450.139191 
	C686.297424,451.698669 686.093140,453.882843 688.668884,453.453674 
	C691.010620,453.063538 690.664368,451.063660 690.421265,449.454620 
	C689.177734,441.221832 687.826843,432.996765 685.486023,424.994812 
	C683.515259,418.258301 679.811401,415.937317 672.176025,416.367310 
	C679.535095,418.418121 681.893127,424.125610 683.387939,431.399933 
z"/>
<path fill="#000000" opacity="1.000000" stroke="none" 
	d="
M290.025085,482.977417 
	C278.053680,483.423492 266.082794,483.883667 254.110611,484.307373 
	C250.290848,484.442566 247.272797,482.845367 245.313538,479.594360 
	C236.884735,465.608673 229.334122,451.159393 222.708328,436.232330 
	C221.731644,434.031952 221.798294,431.785065 222.255905,429.397675 
	C224.286865,418.802032 229.902832,409.967072 235.766953,401.232758 
	C237.179260,399.129181 239.137421,398.834808 241.474304,399.266022 
	C247.039276,400.292847 252.625107,401.206696 258.201874,402.169891 
	C259.796753,402.445374 261.398956,403.250153 262.958862,402.131439 
	C263.179871,391.992279 254.899063,390.916687 248.370499,389.054016 
	C247.759277,386.356171 249.075027,385.391602 250.142029,384.424286 
	C265.009552,370.945587 281.856506,364.442200 302.337311,367.953766 
	C321.832855,371.296417 339.080078,378.688812 354.745239,390.906616 
	C386.820190,415.923157 415.672333,444.107849 441.394012,475.576477 
	C443.885284,478.624390 443.751648,480.648041 441.277893,483.729767 
	C434.715363,491.905151 428.621979,500.456451 422.317139,508.839569 
	C418.995087,513.256653 418.106689,513.329468 414.281067,509.287415 
	C405.580231,500.094330 396.944519,490.839600 388.253113,481.637512 
	C384.119415,477.260895 381.023438,472.553528 381.894531,466.081940 
	C382.288025,463.158478 381.199738,460.532013 379.223816,458.280487 
	C364.859070,441.911865 347.429962,429.523560 328.441711,419.162628 
	C328.054718,418.951477 327.503906,419.040527 327.041992,418.990875 
	C324.734253,427.675354 326.537415,432.088043 333.803741,436.257782 
	C348.442963,444.658325 361.748932,454.947479 374.895935,465.454742 
	C379.500977,469.135162 381.070374,473.526672 379.659851,479.551270 
	C376.554169,492.816559 374.040466,506.220093 371.254272,519.560730 
	C370.257843,524.331970 369.088959,524.996033 364.845367,522.599915 
	C352.790527,515.792969 341.536591,507.775696 330.261169,499.207489 
	C330.000000,499.000000 330.001221,499.001221 329.936523,498.569153 
	C328.465912,477.582001 327.051758,457.027435 325.666962,436.470917 
	C325.531860,434.465454 325.549072,432.657257 323.347839,431.424835 
	C307.242981,422.407867 291.399292,412.848724 273.415985,407.834015 
	C271.292114,407.241760 269.166656,405.846130 266.834930,406.892548 
	C266.003723,408.785614 266.997498,410.313690 267.483765,411.828247 
	C272.461060,427.332031 277.641052,442.771881 282.490265,458.315155 
	C285.052948,466.529327 288.986237,474.337921 289.986053,483.015991 
	C289.998810,483.003021 290.025085,482.977448 290.025085,482.977417 
z"/>
<path fill="#000000" opacity="1.000000" stroke="none" 
	d="
M370.772644,610.799255 
	C375.395599,605.622864 377.003754,600.471985 374.722992,593.735229 
	C372.603027,587.473450 375.506409,581.616577 379.200806,576.477722 
	C388.922821,562.954529 398.713928,549.480347 408.564117,536.050171 
	C415.656616,526.380005 422.855011,516.786804 430.073608,507.210083 
	C433.191742,503.073303 434.256287,503.121918 436.575775,507.712860 
	C440.814270,516.102173 447.558014,520.834961 456.756195,522.353577 
	C458.471771,522.636780 460.501648,522.214966 461.827026,523.933838 
	C462.283417,525.889465 460.841705,527.026733 459.894531,528.303833 
	C442.532501,551.713440 425.122620,575.087585 407.771301,598.505066 
	C403.080048,604.836426 397.351318,609.213318 389.097443,609.361023 
	C387.168915,609.395508 385.448212,610.258606 384.215546,611.616821 
	C374.259186,622.587524 365.591217,634.560608 356.329834,646.967407 
	C359.029327,647.379395 360.458649,646.262390 361.871796,645.391174 
	C371.655151,639.359680 381.387817,633.245850 391.181580,627.231445 
	C394.065399,625.460449 396.016724,623.190613 396.203217,619.700195 
	C396.585571,612.544373 400.975952,608.204956 406.744995,604.976013 
	C418.371185,598.468811 430.061798,592.076721 441.730988,585.646423 
	C455.733551,577.930298 469.733643,570.209656 483.758362,562.534058 
	C485.299652,561.690552 486.679932,560.223938 488.667816,560.712646 
	C489.851685,561.519165 489.992859,562.712036 490.020203,563.868347 
	C490.245819,573.406799 495.205048,580.505798 501.793915,586.750122 
	C505.868958,590.612061 505.963684,591.767334 501.087219,594.397705 
	C474.996246,608.470947 448.832245,622.408875 422.679474,636.367371 
	C418.019196,638.854675 413.145477,639.032959 408.158020,637.399353 
	C405.442627,636.509949 402.663727,635.680908 399.896881,637.062256 
	C386.983276,643.509399 374.094421,650.006104 361.369324,657.340332 
	C375.542358,656.538696 389.714691,655.723755 403.889160,654.948364 
	C406.296234,654.816650 407.895081,653.520325 409.202362,651.678406 
	C413.459503,645.680359 419.522797,643.651489 426.576599,643.653625 
	C450.235413,643.660706 473.894318,643.661865 497.552917,643.584229 
	C503.711487,643.564026 509.868286,643.203491 516.027588,643.096191 
	C517.959290,643.062500 520.074707,642.656738 521.970825,644.932861 
	C515.019287,655.639587 515.767578,666.969482 521.209106,678.042297 
	C518.962219,679.878662 516.889587,679.342651 514.965149,679.342834 
	C486.807861,679.346008 458.650330,679.228699 430.493439,679.319946 
	C422.905701,679.344543 416.318665,677.274719 411.213593,671.588562 
	C407.631866,667.599243 402.999847,666.761414 398.110474,666.515076 
	C386.468475,665.928528 374.820496,665.460876 363.176849,664.904907 
	C359.303467,664.719910 356.468109,665.147705 357.929230,670.342468 
	C358.800446,673.439880 357.990356,676.656799 356.812073,679.639038 
	C354.840271,684.629700 350.425476,686.830383 345.148773,685.616394 
	C340.995605,684.660828 337.222107,682.919617 334.317108,679.766052 
	C327.601959,672.476379 324.110321,663.717407 324.056763,653.896729 
	C323.997833,643.098877 332.508911,638.026428 341.729004,643.536499 
	C346.610748,646.453979 348.756439,644.725281 351.232361,640.835266 
	C357.580841,630.860779 364.109558,621.001038 370.772644,610.799255 
z"/>
<path fill="#000000" opacity="1.000000" stroke="none" 
	d="
M361.406738,382.860657 
	C347.446960,378.173065 333.925110,373.464630 320.291382,369.106140 
	C308.860596,365.451904 297.278870,362.517609 285.043976,363.850677 
	C266.882660,365.829407 253.344650,375.639801 241.387573,388.651703 
	C221.304443,410.506470 214.180191,436.771576 215.553696,465.555878 
	C216.353333,482.313538 219.520889,498.906860 224.114090,515.094360 
	C227.385971,526.625244 228.756973,538.700073 233.213440,549.840271 
	C249.924118,591.613464 267.141022,633.101318 295.658173,668.762329 
	C308.135651,684.365601 322.849670,697.153015 339.919250,707.155334 
	C363.141754,720.763062 388.099060,723.588318 414.180176,717.356689 
	C424.132172,714.978821 434.241150,714.316956 444.445618,714.566650 
	C448.377228,714.662903 452.475464,714.446228 453.738495,719.303162 
	C455.039673,724.306580 450.901367,725.888000 447.694275,727.824097 
	C427.249298,740.166687 405.214447,743.719299 381.504608,741.577637 
	C355.011078,739.184570 331.712677,730.116089 311.707947,712.734497 
	C297.293976,700.210693 285.464569,685.345398 274.135406,670.062134 
	C262.539520,654.419189 251.131058,638.687744 240.744064,622.162292 
	C232.419724,608.918518 226.776062,594.591736 220.373688,580.507568 
	C207.377686,551.918701 197.917038,522.233582 195.534714,490.941162 
	C193.452805,463.594971 192.199951,435.923187 201.859787,409.366150 
	C207.943497,392.640778 215.876389,376.908997 229.170792,364.561249 
	C251.350571,343.960846 276.749115,337.473511 306.224854,345.987976 
	C319.810638,349.912445 332.381958,355.694275 344.832977,362.078033 
	C354.760925,367.168121 364.811646,372.018433 374.791809,377.007263 
	C376.125244,377.673828 377.438599,378.430206 378.627167,379.323395 
	C379.901367,380.280914 380.539886,381.656891 380.105682,383.289154 
	C379.616028,385.129852 378.059906,385.208221 376.528900,385.328278 
	C371.428101,385.728210 366.682037,383.925720 361.406738,382.860657 
z"/>
<path fill="#000000" opacity="1.000000" stroke="none" 
	d="
M615.947998,379.860352 
	C603.635925,398.689117 586.028320,409.878387 565.729980,417.344086 
	C554.643066,421.421844 543.483643,425.325714 532.241211,428.948975 
	C524.864563,431.326416 518.820679,435.038849 514.135132,441.429077 
	C509.618683,447.588684 504.477997,453.328308 499.271271,458.936493 
	C486.647522,472.533569 479.279724,489.087433 472.349670,505.906952 
	C466.715179,519.582214 460.400604,521.340332 448.530365,512.411255 
	C434.823792,502.100800 434.594940,496.899841 448.077545,486.092255 
	C461.090240,475.661346 472.309509,463.866119 480.162689,448.961578 
	C482.780457,443.993286 486.466217,439.566925 489.833984,435.018890 
	C497.001892,425.338898 500.721527,414.533203 500.885529,402.490601 
	C501.096161,387.025299 500.706390,371.542419 503.621674,356.214630 
	C507.434296,336.168610 514.406555,317.813110 529.735779,303.451263 
	C538.928406,294.838806 547.524902,295.022705 555.986328,304.500031 
	C559.227051,308.129852 561.597961,312.339417 563.911926,316.588928 
	C565.490723,319.488434 566.674438,322.641022 569.050842,325.126129 
	C571.669861,325.167938 573.197388,323.096924 575.224792,322.098175 
	C582.679321,318.425873 589.528381,322.235962 589.220398,330.532867 
	C589.024353,335.813354 591.022156,337.899200 595.826172,339.044556 
	C602.786621,340.704010 609.581482,343.013763 615.831848,346.656311 
	C623.100403,350.892273 625.673645,357.236816 623.238464,365.286652 
	C621.681641,370.432770 619.012573,375.050201 615.947998,379.860352 
M562.217896,356.706177 
	C557.254395,362.975708 552.233582,369.200989 547.343567,375.527344 
	C542.556091,381.721069 537.877808,387.999878 533.195801,394.274353 
	C528.567200,400.477295 523.814026,406.602783 520.177002,413.462982 
	C536.464844,397.264435 567.231812,356.793396 571.090271,346.523682 
	C567.910706,350.171265 565.296387,353.170441 562.217896,356.706177 
z"/>
<path fill="#000000" opacity="1.000000" stroke="none" 
	d="
M595.865601,670.302856 
	C576.684509,668.163818 558.585754,670.505737 540.899902,677.024963 
	C533.858521,679.620544 530.574341,677.868774 527.336853,671.002747 
	C524.520996,665.030762 523.011963,658.788269 524.558472,652.119080 
	C526.076599,645.572449 528.720398,643.389038 535.348206,643.511902 
	C542.918518,643.652283 550.069397,646.160095 557.388794,647.655457 
	C574.460266,651.143311 591.534058,649.972107 608.641846,648.332275 
	C610.298584,648.173401 611.989563,647.825989 613.617737,648.001648 
	C626.091431,649.347290 636.105957,644.430420 645.628662,636.803162 
	C665.711060,620.718018 687.795288,608.368225 713.095642,602.195801 
	C724.437805,599.428650 735.271606,601.097961 746.008911,604.345154 
	C753.593445,606.638916 756.412842,611.751770 755.490662,619.716553 
	C754.360779,629.475708 750.433411,638.243591 745.603271,646.617249 
	C747.275696,648.873535 749.783142,649.078003 751.759949,650.181213 
	C759.666199,654.593689 760.359741,663.596558 752.632080,668.124573 
	C748.409851,670.598572 748.265198,672.895020 749.952942,676.891174 
	C752.147522,682.087219 754.026733,687.469666 755.454834,692.925476 
	C758.765564,705.573486 752.813171,714.888306 740.043640,717.054321 
	C722.868286,719.967529 706.172180,718.326660 690.326477,710.714722 
	C674.806030,703.259094 660.082642,694.332214 646.671692,683.622742 
	C637.254395,676.102417 627.284058,671.692627 615.284607,671.464294 
	C608.965942,671.344055 602.656982,670.713989 595.865601,670.302856 
M722.058960,660.380493 
	C695.130920,658.852661 668.203979,659.036438 641.276489,660.570496 
	C671.085999,663.419556 700.927307,663.405945 730.812988,661.225403 
	C728.195862,660.966614 725.578796,660.707825 722.058960,660.380493 
z"/>
<path fill="#000000" opacity="1.000000" stroke="none" 
	d="
M472.753906,176.774506 
	C477.706207,165.829666 480.586578,154.921951 478.779297,143.020462 
	C477.897430,143.069565 477.286865,142.911377 477.002563,143.146942 
	C462.797516,154.917252 445.666168,158.990784 428.032837,161.256256 
	C407.610260,163.880051 388.780731,170.504196 372.425873,183.000046 
	C360.456970,192.144821 352.959198,204.715668 348.454651,219.051132 
	C347.756683,221.272308 347.203796,223.541779 346.439026,225.738510 
	C345.726044,227.786377 344.927124,230.212387 342.222168,229.901031 
	C339.517487,229.589706 339.215607,226.919052 338.985687,224.864410 
	C338.258423,218.364700 338.778625,211.937683 340.469971,205.575287 
	C347.433228,179.381088 365.126770,162.859909 388.824738,151.727142 
	C404.436188,144.393234 420.929291,139.659805 437.642517,135.746201 
	C452.677521,132.225571 465.218170,125.297333 473.917145,112.115944 
	C476.563812,108.105484 479.476837,108.064705 481.539520,112.171455 
	C497.588226,144.124191 499.423279,184.817581 472.242157,212.653030 
	C463.743073,221.356750 453.380829,226.776321 441.478027,229.212891 
	C433.135376,230.920670 424.982635,233.285416 417.197021,236.705612 
	C402.527252,243.149963 386.861542,246.766663 372.053711,252.817978 
	C369.160919,254.000122 365.986115,254.557373 362.754608,253.529449 
	C360.932678,252.949905 359.234589,252.363220 358.666351,250.321045 
	C358.057983,248.134521 358.786499,246.170609 360.577759,245.033432 
	C381.654175,231.652954 400.477875,214.269424 426.714569,210.307144 
	C441.407806,208.088150 454.816071,202.078262 465.068054,190.569046 
	C468.573822,186.633362 470.540649,181.857162 472.753906,176.774506 
z"/>
<path fill="#000000" opacity="1.000000" stroke="none" 
	d="
M260.630615,224.698257 
	C262.474304,224.775177 264.191223,224.453857 265.397308,225.094376 
	C279.654083,232.665756 295.369507,236.997009 309.249695,245.506744 
	C326.278717,255.946991 340.808716,269.420868 355.806976,282.328125 
	C374.863800,298.728119 388.263062,319.671906 401.434601,340.719940 
	C407.173309,349.890350 412.653351,359.224182 418.168213,368.532745 
	C422.886139,376.496185 423.424927,384.522675 418.153381,392.515594 
	C416.236481,395.422058 413.918732,397.778900 410.112488,397.521606 
	C406.613220,397.285065 405.772522,394.229156 404.585144,391.730774 
	C396.722595,375.186951 389.177643,358.402008 378.563354,343.426788 
	C366.075409,325.808105 352.770264,308.770050 336.929749,293.911865 
	C327.923492,285.464142 317.020264,280.036896 306.169006,274.579437 
	C291.009796,266.955322 275.910126,259.080383 258.961761,256.004974 
	C253.898285,255.086151 248.734299,254.705643 243.686966,253.717712 
	C238.323181,252.667831 237.111984,250.235733 238.972885,245.107849 
	C239.423187,243.867020 239.935089,242.540756 240.780609,241.568558 
	C246.464127,235.033646 252.627548,229.028000 260.630615,224.698257 
z"/>
<path fill="#000000" opacity="1.000000" stroke="none" 
	d="
M293.301605,500.522583 
	C298.797363,514.308777 302.413544,528.693420 306.689423,542.863464 
	C315.437866,571.854980 324.005188,600.901184 332.600922,629.938538 
	C333.220123,632.030212 334.848297,634.698181 331.652069,635.967041 
	C328.532654,637.205444 327.216736,634.604736 326.028137,632.363647 
	C310.577911,603.233826 295.134552,574.100281 279.709534,544.957092 
	C272.932434,532.152771 266.105347,519.373413 259.492493,506.484436 
	C256.572479,500.793030 257.278168,499.866638 263.500366,499.708588 
	C272.962830,499.468231 282.415833,497.951294 292.435730,499.805237 
	C293.087280,500.246307 293.194427,500.384430 293.301605,500.522583 
z"/>
<path fill="#000000" opacity="1.000000" stroke="none" 
	d="
M543.507629,715.457520 
	C562.677307,716.634888 580.418884,713.016907 597.065430,704.391541 
	C609.302917,698.050659 622.255005,692.997375 632.931274,683.835510 
	C637.282471,680.101440 639.716675,684.716919 642.439087,687.073181 
	C645.209106,689.470825 644.766541,691.873047 642.314270,694.309143 
	C636.497437,700.087341 630.219116,705.358887 623.100464,709.365784 
	C601.221680,721.680481 578.533386,731.978455 553.185303,734.712830 
	C536.328125,736.531372 519.620178,734.764465 503.007446,731.869019 
	C499.076965,731.184082 495.197052,730.210266 491.268250,729.513916 
	C488.517700,729.026489 487.993011,727.661133 489.150726,725.295044 
	C491.288239,720.926086 493.693909,716.723755 497.578857,713.662048 
	C501.368927,710.674927 505.409637,709.043274 510.540039,710.359863 
	C521.191772,713.093384 532.127075,714.256409 543.507629,715.457520 
z"/>
<path fill="#000000" opacity="1.000000" stroke="none" 
	d="
M363.355042,535.671997 
	C366.406128,538.455627 366.716766,541.578003 366.021240,545.078735 
	C360.446564,573.137634 354.909332,601.204102 349.393585,629.274658 
	C348.933105,631.618042 348.194702,633.788879 346.494690,635.503357 
	C344.971069,637.039856 343.404541,638.815247 340.921295,637.992981 
	C338.465729,637.179871 338.030548,634.910706 337.913269,632.713806 
	C337.478851,624.575867 337.110596,616.434021 336.768707,608.291504 
	C335.659393,581.872253 333.973297,555.488525 332.036530,529.118347 
	C331.710968,524.685669 331.263123,520.210938 332.329254,514.688965 
	C343.316071,521.217407 353.425262,527.977905 363.355042,535.671997 
z"/>
<path fill="#000000" opacity="1.000000" stroke="none" 
	d="
M246.876587,577.992859 
	C240.779434,561.718445 234.379028,545.953186 229.095215,529.447205 
	C232.562073,529.129395 233.614975,531.010498 234.832626,532.479858 
	C263.408051,566.961487 291.990753,601.437378 320.442993,636.020447 
	C322.193909,638.148682 326.513580,640.538330 323.243317,643.847961 
	C319.987213,647.143188 317.590881,642.795837 315.397675,641.143250 
	C296.781830,627.116333 278.430573,612.736755 259.744385,598.805725 
	C252.659897,593.524109 250.404770,585.691040 246.876587,577.992859 
z"/>
<path fill="#000000" opacity="1.000000" stroke="none" 
	d="
M535.076172,632.980103 
	C536.384949,636.181335 534.699280,636.947632 532.380249,637.029724 
	C519.589966,637.482605 506.797302,637.868286 494.007019,638.320435 
	C491.636810,638.404175 490.327118,637.148926 489.436279,635.179565 
	C486.354340,628.365967 483.304230,621.537781 480.167847,614.749329 
	C479.164948,612.578674 479.997589,611.344788 481.852325,610.295959 
	C492.125671,604.486633 502.366394,598.619629 512.647278,592.823853 
	C516.058289,590.900879 517.044800,593.685669 518.081726,595.927979 
	C523.732605,608.146851 529.323547,620.393494 535.076172,632.980103 
z"/>
<path fill="#000000" opacity="1.000000" stroke="none" 
	d="
M463.867188,346.868225 
	C455.529846,352.024261 449.921722,359.758667 442.538177,365.453949 
	C439.842041,367.533600 436.682587,371.203613 433.462128,368.417236 
	C430.262024,365.648438 433.426025,361.866882 435.050476,358.963562 
	C449.022736,333.991638 469.041992,317.019836 497.876312,311.727448 
	C502.774323,310.828461 507.555359,309.303986 512.409363,308.147919 
	C514.304932,307.696472 516.248108,306.973053 518.376587,308.094543 
	C518.903992,311.427551 515.912476,313.369476 515.117798,316.130310 
	C511.956512,327.112976 505.144226,332.655670 493.379333,334.249390 
	C482.885498,335.670898 473.122772,340.666840 463.867188,346.868225 
z"/>
<path fill="#000000" opacity="1.000000" stroke="none" 
	d="
M477.207214,714.962891 
	C470.045380,713.182739 466.394287,709.125427 466.038757,701.888611 
	C465.819794,697.431091 464.777039,693.006409 463.989655,688.587402 
	C463.517578,685.937927 464.642456,684.800110 467.159546,684.809570 
	C479.324524,684.855286 491.489594,684.902283 503.654114,685.008789 
	C505.589630,685.025696 507.310242,685.867065 508.161438,687.683838 
	C510.903381,693.536011 512.538757,699.727844 514.302551,706.201965 
	C512.953247,706.451172 512.213013,706.845947 511.737610,706.637268 
	C503.453308,703.001892 497.135651,706.624451 491.701599,712.376770 
	C487.481354,716.844299 483.060638,718.220764 477.207214,714.962891 
z"/>
<path fill="#000000" opacity="1.000000" stroke="none" 
	d="
M681.747559,594.946167 
	C684.629150,579.470276 685.762268,564.262268 686.088013,548.982422 
	C686.272278,540.340759 686.226868,540.339844 694.330444,537.489990 
	C703.256104,534.351074 703.271545,534.351196 703.158691,543.602234 
	C702.959595,559.927979 700.546143,576.032654 698.027222,592.105225 
	C696.718384,600.456970 689.912598,606.296997 680.346436,607.788757 
	C679.071411,603.457764 681.476807,599.488037 681.747559,594.946167 
z"/>
<path fill="#000000" opacity="1.000000" stroke="none" 
	d="
M556.636353,712.351685 
	C546.680908,712.640320 537.276794,711.740662 527.891663,710.381287 
	C525.443115,710.026550 523.901428,709.056458 523.223267,706.663513 
	C521.593506,700.912720 519.992249,695.151855 518.226807,689.442261 
	C517.350037,686.606750 518.390381,685.299316 521.125305,685.080383 
	C529.587341,684.403015 537.920471,682.898682 546.220520,681.197998 
	C549.549988,680.515747 551.903381,681.681335 552.846375,684.859497 
	C555.205566,692.810181 557.331787,700.829773 559.615723,708.803284 
	C560.291870,711.164124 559.547974,712.306763 556.636353,712.351685 
z"/>
<path fill="#000000" opacity="1.000000" stroke="none" 
	d="
M468.579376,564.495544 
	C457.473053,560.952148 452.067413,545.078369 458.615479,536.296387 
	C461.999939,531.757324 465.497406,527.300964 468.813354,522.712952 
	C471.031067,519.644409 473.029175,519.157959 475.244385,522.639221 
	C480.520660,530.931152 485.801056,539.220764 491.132080,547.477478 
	C493.030548,550.417847 491.711243,551.912720 489.065186,553.319092 
	C482.300537,556.914490 475.628418,560.683899 468.579376,564.495544 
z"/>
<path fill="#000000" opacity="1.000000" stroke="none" 
	d="
M414.170105,680.917236 
	C420.583557,684.380493 427.208069,684.735535 433.920471,684.687134 
	C439.085480,684.649963 444.251221,684.718201 449.416565,684.711182 
	C451.378571,684.708496 453.208313,685.029968 453.734528,687.245483 
	C455.145508,693.185974 456.414764,699.156860 456.628204,706.237610 
	C426.867981,695.049316 397.876038,684.149902 368.884064,673.250427 
	C369.033691,672.509521 369.183289,671.768677 369.332916,671.027771 
	C374.782745,670.216614 380.311981,670.832520 385.814209,671.092712 
	C387.806122,671.186890 389.801331,671.720825 391.773895,671.623962 
	C399.036346,671.267334 405.744843,672.119507 410.557587,678.505493 
	C411.310547,679.504578 412.737640,679.995605 414.170105,680.917236 
z"/>
<path fill="#000000" opacity="1.000000" stroke="none" 
	d="
M395.263092,702.702148 
	C399.665527,706.196106 403.781494,709.478760 407.953735,712.806274 
	C400.432343,719.810486 386.651947,719.162720 380.771149,711.961182 
	C374.782715,704.627869 368.782501,697.304016 362.821259,689.948669 
	C361.674194,688.533325 360.587830,687.049316 359.643524,685.493774 
	C358.262817,683.219299 358.553894,680.923279 360.437592,679.127747 
	C362.420532,677.237610 364.168762,678.863647 365.715668,680.042847 
	C375.492004,687.495728 385.227600,695.002075 395.263092,702.702148 
z"/>
<path fill="#000000" opacity="1.000000" stroke="none" 
	d="
M329.999390,498.999390 
	C331.361725,502.678406 331.192444,506.516815 331.159637,510.338043 
	C331.134644,513.250854 329.775238,514.250549 326.995850,513.196228 
	C315.973083,509.014740 304.947144,504.841583 293.612000,500.593964 
	C293.194427,500.384430 293.087280,500.246307 292.814026,499.904175 
	C291.759216,494.411224 289.852875,489.295746 289.985291,483.408569 
	C290.025085,482.977448 289.998810,483.003021 290.409943,482.959595 
	C293.561127,482.462250 296.056671,483.510590 298.612518,484.185791 
	C309.987854,487.190826 320.205048,492.650116 330.001221,499.001221 
	C330.001221,499.001221 330.000000,499.000000 329.999390,498.999390 
z"/>
<path fill="#000000" opacity="1.000000" stroke="none" 
	d="
M224.934052,509.998932 
	C224.862701,509.403351 224.842941,509.238007 224.817383,509.073547 
	C222.848282,496.400696 222.847687,496.399597 234.649658,490.653748 
	C235.697021,490.143829 236.748322,489.640259 237.812881,489.167755 
	C248.650772,484.357391 252.337006,486.081299 255.825653,497.440155 
	C256.388428,499.272583 256.251160,500.840027 254.709274,501.894440 
	C245.824585,507.970398 236.885101,513.966187 227.838562,520.073914 
	C225.120071,517.068726 225.651154,513.570007 224.934052,509.998932 
z"/>
<path fill="#000000" opacity="1.000000" stroke="none" 
	d="
M284.597656,650.340149 
	C282.276123,646.395447 279.120239,643.310913 278.131439,639.013306 
	C279.722931,638.155090 280.986603,638.669495 282.205658,639.141479 
	C293.217346,643.405945 304.233337,647.660156 315.210480,652.012268 
	C317.043793,652.739075 318.830994,653.746277 320.396576,654.941956 
	C322.271118,656.373657 322.820679,658.580750 322.237549,660.801514 
	C321.629730,663.116150 319.415741,662.882141 317.674255,662.898438 
	C311.352081,662.957642 305.027069,662.763123 298.705688,662.849304 
	C291.915771,662.941833 289.781067,657.298279 286.405792,653.164917 
	C285.778839,652.397156 285.321533,651.490845 284.597656,650.340149 
z"/>
<path fill="#000000" opacity="1.000000" stroke="none" 
	d="
M368.925873,527.244995 
	C371.305817,525.036621 373.016113,526.664673 374.383759,527.925842 
	C380.257812,533.342346 386.196503,538.726318 390.920654,545.237366 
	C393.352020,548.588379 389.724121,556.990234 385.661865,557.617065 
	C384.087189,557.860107 383.245453,556.673523 382.322723,555.774353 
	C379.221375,552.752136 376.421509,549.364502 373.056366,546.680908 
	C366.378906,541.355774 365.580566,534.978760 368.925873,527.244995 
z"/>
<path fill="#000000" opacity="1.000000" stroke="none" 
	d="
M317.059082,686.939087 
	C314.680695,684.213257 311.623932,682.543152 310.074432,678.942749 
	C313.892822,675.310852 318.651001,673.384583 323.617584,672.379211 
	C327.323395,671.629089 331.015839,678.196350 329.154205,681.814148 
	C328.324097,683.427246 327.220428,684.906921 326.172577,686.399231 
	C322.412842,691.753601 322.174774,691.765747 317.059082,686.939087 
z"/>
<path fill="#000000" opacity="1.000000" stroke="none" 
	d="
M350.879395,693.016846 
	C351.193848,688.679932 353.494324,688.220459 355.572937,690.914490 
	C360.905090,697.825378 364.460693,705.818176 368.967590,713.518433 
	C361.861511,714.882385 356.598328,711.909973 354.895203,706.205627 
	C353.618011,701.927856 352.270142,697.671204 350.879395,693.016846 
z"/>
<path fill="#000000" opacity="1.000000" stroke="none" 
	d="
M336.519470,701.034668 
	C334.601654,696.584229 336.513550,692.865540 338.034821,689.332092 
	C339.466187,686.007324 341.665985,687.773315 342.708466,689.795410 
	C344.660675,693.582092 345.297913,698.102905 343.810394,701.822449 
	C341.907593,706.580566 339.147247,702.195496 336.519470,701.034668 
z"/>
<path fill="#000000" opacity="1.000000" stroke="none" 
	d="
M576.360291,313.423157 
	C579.243103,314.348846 579.686768,315.770569 577.471313,317.289154 
	C575.489136,318.647858 573.216003,320.878418 570.801392,319.645630 
	C567.951599,318.190552 566.610596,315.242615 566.813660,311.497498 
	C570.211121,311.098145 573.055786,312.503784 576.360291,313.423157 
z"/>
</svg>